# xmcd CD database file
#
# Track frame offsets:
#	150
#	20794
#	39245
#	58868
#	78352
#	97720
#	117006
#	135815
#	159210
#	178200
#	201922
#	223541
#
# Disc length: 3214 seconds
#
# Revision: 0
# Processed by: cddbd v1.5.1PL0 Copyright (c) Steve Scherf et al.
# Submitted via: CDex 1.51
#
DISCID=930c8c0c
DTITLE=Bobby Bowens - Great, Great Woman
DYEAR=2004
DGENRE=Blues
TTITLE0=Doin' It On The Beach
TTITLE1=When You See The Tape
TTITLE2=Would You Rock Me
TTITLE3=Great, Great Woman
TTITLE4=Fire Lady
TTITLE5=My Love Is In Your Pocket
TTITLE6=I'm Loving On Borrowed Time
TTITLE7=Hoochie Makin' Love
TTITLE8=Good
TTITLE9=Makin' Luv In The Bathtub
TTITLE10=Afection
TTITLE11=Stealin' Love
EXTD=YEAR: 2004
EXTT0=
EXTT1=
EXTT2=
EXTT3=
EXTT4=
EXTT5=
EXTT6=
EXTT7=
EXTT8=
EXTT9=
EXTT10=
EXTT11=
PLAYORDER=
